{"asset":{"version":"2.0","generator":"MeshEditor GenerateRenderBenchmarks"},"scene":0,"scenes":[{"name":"Overlays","nodes":[0,1,2,3,4,5,6,7,8,9,10,11,12,13,14,15,16,17,18,19,20,21,22,23,24,25,26,27,28,29,30,31,32,33,34,35,36,37,38,39,40,41,42,43,44,45,46,47,48,49,50,51,52,53,54,55,56,57,58,59,60,61,62,63,64,65,66,67,68,69,70,71,72,73,74,75,76,77,78,79,80,81,82,83,84,85,86,87,88,89,90,91,92,93,94,95,96,97,98,99,100,101,102,103,104,105,106,107,108,109,110,111,112,113,114,115,116,117,118,119,120,121,122,123,124,125,126,127,128,129,130,131,132,133,134,135,136,137,138,139,140,141,142,143,144,145,146,147,148,149,150,151,152,153,154,155,156,157,158,159,160,161,162,163,164,165,166,167,168,169,170,171,172,173,174,175,176,177,178,179,180,181,182,183,184,185,186,187,188,189,190,191,192,193,194,195,196,197,198,199,203,207,208,209,210,211,212]}],"nodes":[{"name":"Axis depth crossings","mesh":0},{"name":"Pick 1","mesh":0,"translation":[-6.7,3.0,-1.5],"scale":[1.5,1.1,0.2]},{"name":"Pick 2","mesh":0,"translation":[-6.0,3.0,-2.0],"scale":[-1.5,1.1,0.2]},{"name":"Pick 3","mesh":1,"translation":[-5.300000000000001,3.0,-2.5],"scale":[1.5,1.1,0.2]},{"name":"Pick through cutout","mesh":2,"translation":[-6.0,3.0,-0.5],"scale":[3.0,1.8,0.1]},{"name":"Linked sphere 0,0","mesh":3,"translation":[-15.0,0.0,-8.0],"scale":[0.7,0.7,0.7]},{"name":"Linked sphere 1,0","mesh":3,"translation":[-13.0,0.3,-8.0],"scale":[-0.7,0.7,0.7]},{"name":"Linked sphere 2,0","mesh":3,"translation":[-11.0,0.6,-8.0],"scale":[0.7,0.7,0.7]},{"name":"Linked sphere 3,0","mesh":3,"translation":[-9.0,0.0,-8.0],"scale":[-0.7,0.7,0.7]},{"name":"Linked sphere 4,0","mesh":3,"translation":[-7.0,0.3,-8.0],"scale":[0.7,0.7,0.7]},{"name":"Linked sphere 5,0","mesh":3,"translation":[-5.0,0.6,-8.0],"scale":[-0.7,0.7,0.7]},{"name":"Linked sphere 6,0","mesh":3,"translation":[-3.0,0.0,-8.0],"scale":[0.7,0.7,0.7]},{"name":"Linked sphere 7,0","mesh":3,"translation":[-1.0,0.3,-8.0],"scale":[-0.7,0.7,0.7]},{"name":"Linked sphere 8,0","mesh":3,"translation":[1.0,0.6,-8.0],"scale":[0.7,0.7,0.7]},{"name":"Linked sphere 9,0","mesh":3,"translation":[3.0,0.0,-8.0],"scale":[-0.7,0.7,0.7]},{"name":"Linked sphere 10,0","mesh":3,"translation":[5.0,0.3,-8.0],"scale":[0.7,0.7,0.7]},{"name":"Linked sphere 11,0","mesh":3,"translation":[7.0,0.6,-8.0],"scale":[-0.7,0.7,0.7]},{"name":"Linked sphere 12,0","mesh":3,"translation":[9.0,0.0,-8.0],"scale":[0.7,0.7,0.7]},{"name":"Linked sphere 13,0","mesh":3,"translation":[11.0,0.3,-8.0],"scale":[-0.7,0.7,0.7]},{"name":"Linked sphere 14,0","mesh":3,"translation":[13.0,0.6,-8.0],"scale":[0.7,0.7,0.7]},{"name":"Linked sphere 15,0","mesh":3,"translation":[15.0,0.0,-8.0],"scale":[-0.7,0.7,0.7]},{"name":"Linked sphere 0,1","mesh":3,"translation":[-15.0,0.3,-10.0],"scale":[0.7,0.7,0.7]},{"name":"Linked sphere 1,1","mesh":3,"translation":[-13.0,0.6,-10.0],"scale":[-0.7,0.7,0.7]},{"name":"Linked sphere 2,1","mesh":3,"translation":[-11.0,0.0,-10.0],"scale":[0.7,0.7,0.7]},{"name":"Linked sphere 3,1","mesh":3,"translation":[-9.0,0.3,-10.0],"scale":[-0.7,0.7,0.7]},{"name":"Linked sphere 4,1","mesh":3,"translation":[-7.0,0.6,-10.0],"scale":[0.7,0.7,0.7]},{"name":"Linked sphere 5,1","mesh":3,"translation":[-5.0,0.0,-10.0],"scale":[-0.7,0.7,0.7]},{"name":"Linked sphere 6,1","mesh":3,"translation":[-3.0,0.3,-10.0],"scale":[0.7,0.7,0.7]},{"name":"Linked sphere 7,1","mesh":3,"translation":[-1.0,0.6,-10.0],"scale":[-0.7,0.7,0.7]},{"name":"Linked sphere 8,1","mesh":3,"translation":[1.0,0.0,-10.0],"scale":[0.7,0.7,0.7]},{"name":"Linked sphere 9,1","mesh":3,"translation":[3.0,0.3,-10.0],"scale":[-0.7,0.7,0.7]},{"name":"Linked sphere 10,1","mesh":3,"translation":[5.0,0.6,-10.0],"scale":[0.7,0.7,0.7]},{"name":"Linked sphere 11,1","mesh":3,"translation":[7.0,0.0,-10.0],"scale":[-0.7,0.7,0.7]},{"name":"Linked sphere 12,1","mesh":3,"translation":[9.0,0.3,-10.0],"scale":[0.7,0.7,0.7]},{"name":"Linked sphere 13,1","mesh":3,"translation":[11.0,0.6,-10.0],"scale":[-0.7,0.7,0.7]},{"name":"Linked sphere 14,1","mesh":3,"translation":[13.0,0.0,-10.0],"scale":[0.7,0.7,0.7]},{"name":"Linked sphere 15,1","mesh":3,"translation":[15.0,0.3,-10.0],"scale":[-0.7,0.7,0.7]},{"name":"Linked sphere 0,2","mesh":3,"translation":[-15.0,0.6,-12.0],"scale":[0.7,0.7,0.7]},{"name":"Linked sphere 1,2","mesh":3,"translation":[-13.0,0.0,-12.0],"scale":[-0.7,0.7,0.7]},{"name":"Linked sphere 2,2","mesh":3,"translation":[-11.0,0.3,-12.0],"scale":[0.7,0.7,0.7]},{"name":"Linked sphere 3,2","mesh":3,"translation":[-9.0,0.6,-12.0],"scale":[-0.7,0.7,0.7]},{"name":"Linked sphere 4,2","mesh":3,"translation":[-7.0,0.0,-12.0],"scale":[0.7,0.7,0.7]},{"name":"Linked sphere 5,2","mesh":3,"translation":[-5.0,0.3,-12.0],"scale":[-0.7,0.7,0.7]},{"name":"Linked sphere 6,2","mesh":3,"translation":[-3.0,0.6,-12.0],"scale":[0.7,0.7,0.7]},{"name":"Linked sphere 7,2","mesh":3,"translation":[-1.0,0.0,-12.0],"scale":[-0.7,0.7,0.7]},{"name":"Linked sphere 8,2","mesh":3,"translation":[1.0,0.3,-12.0],"scale":[0.7,0.7,0.7]},{"name":"Linked sphere 9,2","mesh":3,"translation":[3.0,0.6,-12.0],"scale":[-0.7,0.7,0.7]},{"name":"Linked sphere 10,2","mesh":3,"translation":[5.0,0.0,-12.0],"scale":[0.7,0.7,0.7]},{"name":"Linked sphere 11,2","mesh":3,"translation":[7.0,0.3,-12.0],"scale":[-0.7,0.7,0.7]},{"name":"Linked sphere 12,2","mesh":3,"translation":[9.0,0.6,-12.0],"scale":[0.7,0.7,0.7]},{"name":"Linked sphere 13,2","mesh":3,"translation":[11.0,0.0,-12.0],"scale":[-0.7,0.7,0.7]},{"name":"Linked sphere 14,2","mesh":3,"translation":[13.0,0.3,-12.0],"scale":[0.7,0.7,0.7]},{"name":"Linked sphere 15,2","mesh":3,"translation":[15.0,0.6,-12.0],"scale":[-0.7,0.7,0.7]},{"name":"Linked sphere 0,3","mesh":3,"translation":[-15.0,0.0,-14.0],"scale":[0.7,0.7,0.7]},{"name":"Linked sphere 1,3","mesh":3,"translation":[-13.0,0.3,-14.0],"scale":[-0.7,0.7,0.7]},{"name":"Linked sphere 2,3","mesh":3,"translation":[-11.0,0.6,-14.0],"scale":[0.7,0.7,0.7]},{"name":"Linked sphere 3,3","mesh":3,"translation":[-9.0,0.0,-14.0],"scale":[-0.7,0.7,0.7]},{"name":"Linked sphere 4,3","mesh":3,"translation":[-7.0,0.3,-14.0],"scale":[0.7,0.7,0.7]},{"name":"Linked sphere 5,3","mesh":3,"translation":[-5.0,0.6,-14.0],"scale":[-0.7,0.7,0.7]},{"name":"Linked sphere 6,3","mesh":3,"translation":[-3.0,0.0,-14.0],"scale":[0.7,0.7,0.7]},{"name":"Linked sphere 7,3","mesh":3,"translation":[-1.0,0.3,-14.0],"scale":[-0.7,0.7,0.7]},{"name":"Linked sphere 8,3","mesh":3,"translation":[1.0,0.6,-14.0],"scale":[0.7,0.7,0.7]},{"name":"Linked sphere 9,3","mesh":3,"translation":[3.0,0.0,-14.0],"scale":[-0.7,0.7,0.7]},{"name":"Linked sphere 10,3","mesh":3,"translation":[5.0,0.3,-14.0],"scale":[0.7,0.7,0.7]},{"name":"Linked sphere 11,3","mesh":3,"translation":[7.0,0.6,-14.0],"scale":[-0.7,0.7,0.7]},{"name":"Linked sphere 12,3","mesh":3,"translation":[9.0,0.0,-14.0],"scale":[0.7,0.7,0.7]},{"name":"Linked sphere 13,3","mesh":3,"translation":[11.0,0.3,-14.0],"scale":[-0.7,0.7,0.7]},{"name":"Linked sphere 14,3","mesh":3,"translation":[13.0,0.6,-14.0],"scale":[0.7,0.7,0.7]},{"name":"Linked sphere 15,3","mesh":3,"translation":[15.0,0.0,-14.0],"scale":[-0.7,0.7,0.7]},{"name":"Linked sphere 0,4","mesh":3,"translation":[-15.0,0.3,-16.0],"scale":[0.7,0.7,0.7]},{"name":"Linked sphere 1,4","mesh":3,"translation":[-13.0,0.6,-16.0],"scale":[-0.7,0.7,0.7]},{"name":"Linked sphere 2,4","mesh":3,"translation":[-11.0,0.0,-16.0],"scale":[0.7,0.7,0.7]},{"name":"Linked sphere 3,4","mesh":3,"translation":[-9.0,0.3,-16.0],"scale":[-0.7,0.7,0.7]},{"name":"Linked sphere 4,4","mesh":3,"translation":[-7.0,0.6,-16.0],"scale":[0.7,0.7,0.7]},{"name":"Linked sphere 5,4","mesh":3,"translation":[-5.0,0.0,-16.0],"scale":[-0.7,0.7,0.7]},{"name":"Linked sphere 6,4","mesh":3,"translation":[-3.0,0.3,-16.0],"scale":[0.7,0.7,0.7]},{"name":"Linked sphere 7,4","mesh":3,"translation":[-1.0,0.6,-16.0],"scale":[-0.7,0.7,0.7]},{"name":"Linked sphere 8,4","mesh":3,"translation":[1.0,0.0,-16.0],"scale":[0.7,0.7,0.7]},{"name":"Linked sphere 9,4","mesh":3,"translation":[3.0,0.3,-16.0],"scale":[-0.7,0.7,0.7]},{"name":"Linked sphere 10,4","mesh":3,"translation":[5.0,0.6,-16.0],"scale":[0.7,0.7,0.7]},{"name":"Linked sphere 11,4","mesh":3,"translation":[7.0,0.0,-16.0],"scale":[-0.7,0.7,0.7]},{"name":"Linked sphere 12,4","mesh":3,"translation":[9.0,0.3,-16.0],"scale":[0.7,0.7,0.7]},{"name":"Linked sphere 13,4","mesh":3,"translation":[11.0,0.6,-16.0],"scale":[-0.7,0.7,0.7]},{"name":"Linked sphere 14,4","mesh":3,"translation":[13.0,0.0,-16.0],"scale":[0.7,0.7,0.7]},{"name":"Linked sphere 15,4","mesh":3,"translation":[15.0,0.3,-16.0],"scale":[-0.7,0.7,0.7]},{"name":"Linked sphere 0,5","mesh":3,"translation":[-15.0,0.6,-18.0],"scale":[0.7,0.7,0.7]},{"name":"Linked sphere 1,5","mesh":3,"translation":[-13.0,0.0,-18.0],"scale":[-0.7,0.7,0.7]},{"name":"Linked sphere 2,5","mesh":3,"translation":[-11.0,0.3,-18.0],"scale":[0.7,0.7,0.7]},{"name":"Linked sphere 3,5","mesh":3,"translation":[-9.0,0.6,-18.0],"scale":[-0.7,0.7,0.7]},{"name":"Linked sphere 4,5","mesh":3,"translation":[-7.0,0.0,-18.0],"scale":[0.7,0.7,0.7]},{"name":"Linked sphere 5,5","mesh":3,"translation":[-5.0,0.3,-18.0],"scale":[-0.7,0.7,0.7]},{"name":"Linked sphere 6,5","mesh":3,"translation":[-3.0,0.6,-18.0],"scale":[0.7,0.7,0.7]},{"name":"Linked sphere 7,5","mesh":3,"translation":[-1.0,0.0,-18.0],"scale":[-0.7,0.7,0.7]},{"name":"Linked sphere 8,5","mesh":3,"translation":[1.0,0.3,-18.0],"scale":[0.7,0.7,0.7]},{"name":"Linked sphere 9,5","mesh":3,"translation":[3.0,0.6,-18.0],"scale":[-0.7,0.7,0.7]},{"name":"Linked sphere 10,5","mesh":3,"translation":[5.0,0.0,-18.0],"scale":[0.7,0.7,0.7]},{"name":"Linked sphere 11,5","mesh":3,"translation":[7.0,0.3,-18.0],"scale":[-0.7,0.7,0.7]},{"name":"Linked sphere 12,5","mesh":3,"translation":[9.0,0.6,-18.0],"scale":[0.7,0.7,0.7]},{"name":"Linked sphere 13,5","mesh":3,"translation":[11.0,0.0,-18.0],"scale":[-0.7,0.7,0.7]},{"name":"Linked sphere 14,5","mesh":3,"translation":[13.0,0.3,-18.0],"scale":[0.7,0.7,0.7]},{"name":"Linked sphere 15,5","mesh":3,"translation":[15.0,0.6,-18.0],"scale":[-0.7,0.7,0.7]},{"name":"Linked sphere 0,6","mesh":3,"translation":[-15.0,0.0,-20.0],"scale":[0.7,0.7,0.7]},{"name":"Linked sphere 1,6","mesh":3,"translation":[-13.0,0.3,-20.0],"scale":[-0.7,0.7,0.7]},{"name":"Linked sphere 2,6","mesh":3,"translation":[-11.0,0.6,-20.0],"scale":[0.7,0.7,0.7]},{"name":"Linked sphere 3,6","mesh":3,"translation":[-9.0,0.0,-20.0],"scale":[-0.7,0.7,0.7]},{"name":"Linked sphere 4,6","mesh":3,"translation":[-7.0,0.3,-20.0],"scale":[0.7,0.7,0.7]},{"name":"Linked sphere 5,6","mesh":3,"translation":[-5.0,0.6,-20.0],"scale":[-0.7,0.7,0.7]},{"name":"Linked sphere 6,6","mesh":3,"translation":[-3.0,0.0,-20.0],"scale":[0.7,0.7,0.7]},{"name":"Linked sphere 7,6","mesh":3,"translation":[-1.0,0.3,-20.0],"scale":[-0.7,0.7,0.7]},{"name":"Linked sphere 8,6","mesh":3,"translation":[1.0,0.6,-20.0],"scale":[0.7,0.7,0.7]},{"name":"Linked sphere 9,6","mesh":3,"translation":[3.0,0.0,-20.0],"scale":[-0.7,0.7,0.7]},{"name":"Linked sphere 10,6","mesh":3,"translation":[5.0,0.3,-20.0],"scale":[0.7,0.7,0.7]},{"name":"Linked sphere 11,6","mesh":3,"translation":[7.0,0.6,-20.0],"scale":[-0.7,0.7,0.7]},{"name":"Linked sphere 12,6","mesh":3,"translation":[9.0,0.0,-20.0],"scale":[0.7,0.7,0.7]},{"name":"Linked sphere 13,6","mesh":3,"translation":[11.0,0.3,-20.0],"scale":[-0.7,0.7,0.7]},{"name":"Linked sphere 14,6","mesh":3,"translation":[13.0,0.6,-20.0],"scale":[0.7,0.7,0.7]},{"name":"Linked sphere 15,6","mesh":3,"translation":[15.0,0.0,-20.0],"scale":[-0.7,0.7,0.7]},{"name":"Linked sphere 0,7","mesh":3,"translation":[-15.0,0.3,-22.0],"scale":[0.7,0.7,0.7]},{"name":"Linked sphere 1,7","mesh":3,"translation":[-13.0,0.6,-22.0],"scale":[-0.7,0.7,0.7]},{"name":"Linked sphere 2,7","mesh":3,"translation":[-11.0,0.0,-22.0],"scale":[0.7,0.7,0.7]},{"name":"Linked sphere 3,7","mesh":3,"translation":[-9.0,0.3,-22.0],"scale":[-0.7,0.7,0.7]},{"name":"Linked sphere 4,7","mesh":3,"translation":[-7.0,0.6,-22.0],"scale":[0.7,0.7,0.7]},{"name":"Linked sphere 5,7","mesh":3,"translation":[-5.0,0.0,-22.0],"scale":[-0.7,0.7,0.7]},{"name":"Linked sphere 6,7","mesh":3,"translation":[-3.0,0.3,-22.0],"scale":[0.7,0.7,0.7]},{"name":"Linked sphere 7,7","mesh":3,"translation":[-1.0,0.6,-22.0],"scale":[-0.7,0.7,0.7]},{"name":"Linked sphere 8,7","mesh":3,"translation":[1.0,0.0,-22.0],"scale":[0.7,0.7,0.7]},{"name":"Linked sphere 9,7","mesh":3,"translation":[3.0,0.3,-22.0],"scale":[-0.7,0.7,0.7]},{"name":"Linked sphere 10,7","mesh":3,"translation":[5.0,0.6,-22.0],"scale":[0.7,0.7,0.7]},{"name":"Linked sphere 11,7","mesh":3,"translation":[7.0,0.0,-22.0],"scale":[-0.7,0.7,0.7]},{"name":"Linked sphere 12,7","mesh":3,"translation":[9.0,0.3,-22.0],"scale":[0.7,0.7,0.7]},{"name":"Linked sphere 13,7","mesh":3,"translation":[11.0,0.6,-22.0],"scale":[-0.7,0.7,0.7]},{"name":"Linked sphere 14,7","mesh":3,"translation":[13.0,0.0,-22.0],"scale":[0.7,0.7,0.7]},{"name":"Linked sphere 15,7","mesh":3,"translation":[15.0,0.3,-22.0],"scale":[-0.7,0.7,0.7]},{"name":"Linked sphere 0,8","mesh":3,"translation":[-15.0,0.6,-24.0],"scale":[0.7,0.7,0.7]},{"name":"Linked sphere 1,8","mesh":3,"translation":[-13.0,0.0,-24.0],"scale":[-0.7,0.7,0.7]},{"name":"Linked sphere 2,8","mesh":3,"translation":[-11.0,0.3,-24.0],"scale":[0.7,0.7,0.7]},{"name":"Linked sphere 3,8","mesh":3,"translation":[-9.0,0.6,-24.0],"scale":[-0.7,0.7,0.7]},{"name":"Linked sphere 4,8","mesh":3,"translation":[-7.0,0.0,-24.0],"scale":[0.7,0.7,0.7]},{"name":"Linked sphere 5,8","mesh":3,"translation":[-5.0,0.3,-24.0],"scale":[-0.7,0.7,0.7]},{"name":"Linked sphere 6,8","mesh":3,"translation":[-3.0,0.6,-24.0],"scale":[0.7,0.7,0.7]},{"name":"Linked sphere 7,8","mesh":3,"translation":[-1.0,0.0,-24.0],"scale":[-0.7,0.7,0.7]},{"name":"Linked sphere 8,8","mesh":3,"translation":[1.0,0.3,-24.0],"scale":[0.7,0.7,0.7]},{"name":"Linked sphere 9,8","mesh":3,"translation":[3.0,0.6,-24.0],"scale":[-0.7,0.7,0.7]},{"name":"Linked sphere 10,8","mesh":3,"translation":[5.0,0.0,-24.0],"scale":[0.7,0.7,0.7]},{"name":"Linked sphere 11,8","mesh":3,"translation":[7.0,0.3,-24.0],"scale":[-0.7,0.7,0.7]},{"name":"Linked sphere 12,8","mesh":3,"translation":[9.0,0.6,-24.0],"scale":[0.7,0.7,0.7]},{"name":"Linked sphere 13,8","mesh":3,"translation":[11.0,0.0,-24.0],"scale":[-0.7,0.7,0.7]},{"name":"Linked sphere 14,8","mesh":3,"translation":[13.0,0.3,-24.0],"scale":[0.7,0.7,0.7]},{"name":"Linked sphere 15,8","mesh":3,"translation":[15.0,0.6,-24.0],"scale":[-0.7,0.7,0.7]},{"name":"Linked sphere 0,9","mesh":3,"translation":[-15.0,0.0,-26.0],"scale":[0.7,0.7,0.7]},{"name":"Linked sphere 1,9","mesh":3,"translation":[-13.0,0.3,-26.0],"scale":[-0.7,0.7,0.7]},{"name":"Linked sphere 2,9","mesh":3,"translation":[-11.0,0.6,-26.0],"scale":[0.7,0.7,0.7]},{"name":"Linked sphere 3,9","mesh":3,"translation":[-9.0,0.0,-26.0],"scale":[-0.7,0.7,0.7]},{"name":"Linked sphere 4,9","mesh":3,"translation":[-7.0,0.3,-26.0],"scale":[0.7,0.7,0.7]},{"name":"Linked sphere 5,9","mesh":3,"translation":[-5.0,0.6,-26.0],"scale":[-0.7,0.7,0.7]},{"name":"Linked sphere 6,9","mesh":3,"translation":[-3.0,0.0,-26.0],"scale":[0.7,0.7,0.7]},{"name":"Linked sphere 7,9","mesh":3,"translation":[-1.0,0.3,-26.0],"scale":[-0.7,0.7,0.7]},{"name":"Linked sphere 8,9","mesh":3,"translation":[1.0,0.6,-26.0],"scale":[0.7,0.7,0.7]},{"name":"Linked sphere 9,9","mesh":3,"translation":[3.0,0.0,-26.0],"scale":[-0.7,0.7,0.7]},{"name":"Linked sphere 10,9","mesh":3,"translation":[5.0,0.3,-26.0],"scale":[0.7,0.7,0.7]},{"name":"Linked sphere 11,9","mesh":3,"translation":[7.0,0.6,-26.0],"scale":[-0.7,0.7,0.7]},{"name":"Linked sphere 12,9","mesh":3,"translation":[9.0,0.0,-26.0],"scale":[0.7,0.7,0.7]},{"name":"Linked sphere 13,9","mesh":3,"translation":[11.0,0.3,-26.0],"scale":[-0.7,0.7,0.7]},{"name":"Linked sphere 14,9","mesh":3,"translation":[13.0,0.6,-26.0],"scale":[0.7,0.7,0.7]},{"name":"Linked sphere 15,9","mesh":3,"translation":[15.0,0.0,-26.0],"scale":[-0.7,0.7,0.7]},{"name":"Linked sphere 0,10","mesh":3,"translation":[-15.0,0.3,-28.0],"scale":[0.7,0.7,0.7]},{"name":"Linked sphere 1,10","mesh":3,"translation":[-13.0,0.6,-28.0],"scale":[-0.7,0.7,0.7]},{"name":"Linked sphere 2,10","mesh":3,"translation":[-11.0,0.0,-28.0],"scale":[0.7,0.7,0.7]},{"name":"Linked sphere 3,10","mesh":3,"translation":[-9.0,0.3,-28.0],"scale":[-0.7,0.7,0.7]},{"name":"Linked sphere 4,10","mesh":3,"translation":[-7.0,0.6,-28.0],"scale":[0.7,0.7,0.7]},{"name":"Linked sphere 5,10","mesh":3,"translation":[-5.0,0.0,-28.0],"scale":[-0.7,0.7,0.7]},{"name":"Linked sphere 6,10","mesh":3,"translation":[-3.0,0.3,-28.0],"scale":[0.7,0.7,0.7]},{"name":"Linked sphere 7,10","mesh":3,"translation":[-1.0,0.6,-28.0],"scale":[-0.7,0.7,0.7]},{"name":"Linked sphere 8,10","mesh":3,"translation":[1.0,0.0,-28.0],"scale":[0.7,0.7,0.7]},{"name":"Linked sphere 9,10","mesh":3,"translation":[3.0,0.3,-28.0],"scale":[-0.7,0.7,0.7]},{"name":"Linked sphere 10,10","mesh":3,"translation":[5.0,0.6,-28.0],"scale":[0.7,0.7,0.7]},{"name":"Linked sphere 11,10","mesh":3,"translation":[7.0,0.0,-28.0],"scale":[-0.7,0.7,0.7]},{"name":"Linked sphere 12,10","mesh":3,"translation":[9.0,0.3,-28.0],"scale":[0.7,0.7,0.7]},{"name":"Linked sphere 13,10","mesh":3,"translation":[11.0,0.6,-28.0],"scale":[-0.7,0.7,0.7]},{"name":"Linked sphere 14,10","mesh":3,"translation":[13.0,0.0,-28.0],"scale":[0.7,0.7,0.7]},{"name":"Linked sphere 15,10","mesh":3,"translation":[15.0,0.3,-28.0],"scale":[-0.7,0.7,0.7]},{"name":"Linked sphere 0,11","mesh":3,"translation":[-15.0,0.6,-30.0],"scale":[0.7,0.7,0.7]},{"name":"Linked sphere 1,11","mesh":3,"translation":[-13.0,0.0,-30.0],"scale":[-0.7,0.7,0.7]},{"name":"Linked sphere 2,11","mesh":3,"translation":[-11.0,0.3,-30.0],"scale":[0.7,0.7,0.7]},{"name":"Linked sphere 3,11","mesh":3,"translation":[-9.0,0.6,-30.0],"scale":[-0.7,0.7,0.7]},{"name":"Linked sphere 4,11","mesh":3,"translation":[-7.0,0.0,-30.0],"scale":[0.7,0.7,0.7]},{"name":"Linked sphere 5,11","mesh":3,"translation":[-5.0,0.3,-30.0],"scale":[-0.7,0.7,0.7]},{"name":"Linked sphere 6,11","mesh":3,"translation":[-3.0,0.6,-30.0],"scale":[0.7,0.7,0.7]},{"name":"Linked sphere 7,11","mesh":3,"translation":[-1.0,0.0,-30.0],"scale":[-0.7,0.7,0.7]},{"name":"Linked sphere 8,11","mesh":3,"translation":[1.0,0.3,-30.0],"scale":[0.7,0.7,0.7]},{"name":"Linked sphere 9,11","mesh":3,"translation":[3.0,0.6,-30.0],"scale":[-0.7,0.7,0.7]},{"name":"Linked sphere 10,11","mesh":3,"translation":[5.0,0.0,-30.0],"scale":[0.7,0.7,0.7]},{"name":"Linked sphere 11,11","mesh":3,"translation":[7.0,0.3,-30.0],"scale":[-0.7,0.7,0.7]},{"name":"Linked sphere 12,11","mesh":3,"translation":[9.0,0.6,-30.0],"scale":[0.7,0.7,0.7]},{"name":"Linked sphere 13,11","mesh":3,"translation":[11.0,0.0,-30.0],"scale":[-0.7,0.7,0.7]},{"name":"Linked sphere 14,11","mesh":3,"translation":[13.0,0.3,-30.0],"scale":[0.7,0.7,0.7]},{"name":"Linked sphere 15,11","mesh":3,"translation":[15.0,0.6,-30.0],"scale":[-0.7,0.7,0.7]},{"name":"Lines","mesh":4},{"name":"Points","mesh":5},{"name":"Rig 0","translation":[3.5,0.0,-1.5],"scale":[1.0,1.0,1.0],"children":[200,202]},{"name":"Root 0","children":[201]},{"name":"Tip 0","translation":[0.0,1.25,0.0]},{"name":"Skin 0","mesh":6,"skin":0},{"name":"Rig 1","translation":[5.5,0.0,-1.5],"scale":[-1.0,1.0,1.0],"children":[204,206]},{"name":"Root 1","children":[205]},{"name":"Tip 1","translation":[0.0,1.25,0.0]},{"name":"Skin 1","mesh":6,"skin":1},{"name":"Bone occluder","mesh":0,"translation":[4.5,0.6,-0.6],"scale":[1.8,0.4,0.15]},{"name":"Spot","translation":[3,4,2],"rotation":[-0.358390659,0.431115759,0.19180486,0.805547164],"extensions":{"KHR_lights_punctual":{"light":0}}},{"name":"Axes Camera","camera":0,"translation":[3.8,2.4,5.5],"rotation":[-0.163711243,0.29330575,0.051054556,0.940512519]},{"name":"Overview Camera","camera":1,"translation":[20,17,28],"rotation":[-0.175801824,0.225973575,0.041501181,0.957239424]},{"name":"Pick Camera","camera":2,"translation":[-6,3,8],"rotation":[0.0,0.0,0.0,1.0]},{"name":"Orthographic Camera","camera":3,"translation":[20,17,28],"rotation":[-0.175801824,0.225973575,0.041501181,0.957239424]}],"meshes":[{"name":"Cube","primitives":[{"attributes":{"POSITION":0,"NORMAL":1,"TANGENT":2,"TEXCOORD_0":3,"TEXCOORD_1":4,"COLOR_0":5},"indices":6,"mode":4,"material":0}]},{"name":"Blend","primitives":[{"attributes":{"POSITION":0,"NORMAL":1,"TANGENT":2,"TEXCOORD_0":3,"TEXCOORD_1":4,"COLOR_0":5},"indices":6,"mode":4,"material":2}]},{"name":"Cutout","primitives":[{"attributes":{"POSITION":0,"NORMAL":1,"TANGENT":2,"TEXCOORD_0":3,"TEXCOORD_1":4,"COLOR_0":5},"indices":6,"mode":4,"material":3}]},{"name":"Linked dense sphere","primitives":[{"attributes":{"POSITION":7,"NORMAL":8,"TANGENT":9,"TEXCOORD_0":10,"TEXCOORD_1":11,"COLOR_0":12},"indices":13,"mode":4,"material":0}]},{"name":"Lines","primitives":[{"attributes":{"POSITION":14},"mode":1,"material":1,"indices":15}]},{"name":"Points","primitives":[{"attributes":{"POSITION":14},"mode":0,"material":1}]},{"name":"Skinned bar","primitives":[{"attributes":{"POSITION":16,"NORMAL":1,"TANGENT":2,"TEXCOORD_0":3,"TEXCOORD_1":4,"COLOR_0":5,"JOINTS_0":17,"WEIGHTS_0":18},"indices":6,"mode":4,"material":0}]}],"materials":[{"name":"Opaque","pbrMetallicRoughness":{"baseColorFactor":[0.55,0.58,0.62,1.0],"metallicFactor":0.0,"roughnessFactor":0.75}},{"name":"Opaque Dark","pbrMetallicRoughness":{"baseColorFactor":[0.12,0.15,0.2,1.0],"metallicFactor":0.1,"roughnessFactor":0.65}},{"name":"Blend","alphaMode":"BLEND","doubleSided":true,"pbrMetallicRoughness":{"baseColorFactor":[0.2,0.6,0.9,0.4]}},{"name":"Cutout","alphaMode":"MASK","doubleSided":true,"pbrMetallicRoughness":{"baseColorTexture":{"index":0},"baseColorFactor":[0.8,0.35,0.1,1.0]}}],"cameras":[{"name":"Axes","type":"perspective","perspective":{"yfov":0.9599310885968813,"znear":0.1,"zfar":200.0}},{"name":"Overview","type":"perspective","perspective":{"yfov":0.9599310885968813,"znear":0.1,"zfar":200.0}},{"name":"Pick","type":"perspective","perspective":{"yfov":0.9599310885968813,"znear":0.1,"zfar":200.0}},{"name":"Orthographic","type":"orthographic","orthographic":{"xmag":25.0,"ymag":16.0,"znear":0.1,"zfar":200.0}}],"images":[{"uri":"Cutout.png"}],"textures":[{"source":0}],"skins":[{"joints":[200,201],"skeleton":200,"inverseBindMatrices":19},{"joints":[204,205],"skeleton":204,"inverseBindMatrices":19}],"animations":[{"name":"Bone bend","samplers":[{"input":20,"output":21,"interpolation":"LINEAR"}],"channels":[{"sampler":0,"target":{"node":201,"path":"rotation"}},{"sampler":0,"target":{"node":205,"path":"rotation"}}]}],"extensionsUsed":["KHR_lights_punctual"],"extensions":{"KHR_lights_punctual":{"lights":[{"name":"Spot","type":"spot","intensity":30,"spot":{"outerConeAngle":0.55}}]}},"bufferViews":[{"buffer":0,"byteOffset":0,"byteLength":288,"target":34962},{"buffer":0,"byteOffset":288,"byteLength":288,"target":34962},{"buffer":0,"byteOffset":576,"byteLength":384,"target":34962},{"buffer":0,"byteOffset":960,"byteLength":192,"target":34962},{"buffer":0,"byteOffset":1152,"byteLength":192,"target":34962},{"buffer":0,"byteOffset":1344,"byteLength":384,"target":34962},{"buffer":0,"byteOffset":1728,"byteLength":144,"target":34963},{"buffer":0,"byteOffset":1872,"byteLength":25740,"target":34962},{"buffer":0,"byteOffset":27612,"byteLength":25740,"target":34962},{"buffer":0,"byteOffset":53352,"byteLength":34320,"target":34962},{"buffer":0,"byteOffset":87672,"byteLength":17160,"target":34962},{"buffer":0,"byteOffset":104832,"byteLength":17160,"target":34962},{"buffer":0,"byteOffset":121992,"byteLength":34320,"target":34962},{"buffer":0,"byteOffset":156312,"byteLength":49152,"target":34963},{"buffer":0,"byteOffset":205464,"byteLength":3468,"target":34962},{"buffer":0,"byteOffset":208932,"byteLength":2176,"target":34963},{"buffer":0,"byteOffset":211108,"byteLength":288,"target":34962},{"buffer":0,"byteOffset":211396,"byteLength":192,"target":34962},{"buffer":0,"byteOffset":211588,"byteLength":384,"target":34962},{"buffer":0,"byteOffset":211972,"byteLength":128,"target":34962},{"buffer":0,"byteOffset":212100,"byteLength":12},{"buffer":0,"byteOffset":212112,"byteLength":48}],"accessors":[{"bufferView":0,"componentType":5126,"count":24,"type":"VEC3","min":[-1,-1,-1],"max":[1,1,1]},{"bufferView":1,"componentType":5126,"count":24,"type":"VEC3"},{"bufferView":2,"componentType":5126,"count":24,"type":"VEC4"},{"bufferView":3,"componentType":5126,"count":24,"type":"VEC2"},{"bufferView":4,"componentType":5126,"count":24,"type":"VEC2"},{"bufferView":5,"componentType":5126,"count":24,"type":"VEC4"},{"bufferView":6,"componentType":5125,"count":36,"type":"SCALAR"},{"bufferView":7,"componentType":5126,"count":2145,"type":"VEC3","min":[-1.0,-1.0,-1.0],"max":[1.0,1.0,1.0]},{"bufferView":8,"componentType":5126,"count":2145,"type":"VEC3"},{"bufferView":9,"componentType":5126,"count":2145,"type":"VEC4"},{"bufferView":10,"componentType":5126,"count":2145,"type":"VEC2"},{"bufferView":11,"componentType":5126,"count":2145,"type":"VEC2"},{"bufferView":12,"componentType":5126,"count":2145,"type":"VEC4"},{"bufferView":13,"componentType":5125,"count":12288,"type":"SCALAR"},{"bufferView":14,"componentType":5126,"count":289,"type":"VEC3","min":[4.0,-0.5,-2.0],"max":[6.88,2.38,-1.2]},{"bufferView":15,"componentType":5125,"count":544,"type":"SCALAR"},{"bufferView":16,"componentType":5126,"count":24,"type":"VEC3","min":[-0.25,0.0,-0.25],"max":[0.25,2.5,0.25]},{"bufferView":17,"componentType":5123,"count":24,"type":"VEC4"},{"bufferView":18,"componentType":5126,"count":24,"type":"VEC4"},{"bufferView":19,"componentType":5126,"count":2,"type":"MAT4"},{"bufferView":20,"componentType":5126,"count":3,"type":"SCALAR","min":[0.0],"max":[2.0]},{"bufferView":21,"componentType":5126,"count":3,"type":"VEC4"}],"buffers":[{"uri":"Overlays.bin","byteLength":212160}]}
