<svg xmlns="http://www.w3.org/2000/svg" width="64" height="64" viewBox="0 0 64 64">
  <path d="m 39.9997,4.0014 c -9.8227,0 -17.9755,7.0859 -19.6641,16.4219 1.9292,-0.3604 3.9009,-0.518 5.8828,-0.2969 2.6514,0.2966 2.206,4.2732 -0.4453,3.9766 -1.9427,-0.2168 -3.8879,-0.0716 -5.75,0.4062 0.2671,10.6257 8.809,19.1813 19.4297,19.4688 0.4863,-1.8937 0.6647,-3.8608 0.4375,-5.8203 -0.1529,-1.1728 0.7397,-2.2214 1.9219,-2.2578 1.0507,-0.034 1.9484,0.751 2.0547,1.7969 0.2315,1.9967 0.145,4.005 -0.2188,5.9609 9.3017,-1.7163 16.3516,-9.8579 16.3516,-19.6562 0,-11.0457 -8.9543,-20 -20,-20 z m -6.2734,19.3203 c 0.4026,0.0038 0.7947,0.1291 1.125,0.3594 2.1633,1.4526 4.0193,3.3112 5.4688,5.4766 1.6228,2.2395 -1.8645,4.5781 -3.3203,2.2266 -1.1596,-1.7324 -2.6443,-3.2208 -4.375,-4.3828 -1.6806,-1.0869 -0.8998,-3.695 1.1016,-3.6797 z" fill="#fff" fill-rule="evenodd"/>
  <path d="m 13.9372,23.0326 a 2.0002,2.0002 0 0 0 -1.0703,0.3516 c -6.6808,4.475 -10.0316,12.5358 -8.5,20.4297 s 7.6538,14.106 15.5234,15.7578 c 7.8696,1.6519 15.9783,-1.5757 20.5547,-8.1875 a 2.0002,2.0002 0 1 0 -3.2891,-2.2734 c -3.6669,5.2977 -10.1398,7.8704 -16.4453,6.5469 -6.3056,-1.3236 -11.1947,-6.2844 -12.4219,-12.6094 -1.2272,-6.325 1.4516,-12.7581 6.8047,-16.3438 a 2.0002,2.0002 0 0 0 -1.1563,-3.6719 z" fill="#fff"/>
</svg>
