<svg xmlns="http://www.w3.org/2000/svg" width="64" height="64" viewBox="0 0 64 64">
  <path d="m 32,4 c -15.4403,0 -28,12.5597 -28,28 0,15.4403 12.5597,28 28,28 s 28,-12.5597 28,-28 c 0,-15.4403 -12.5597,-28 -28,-28 z m 0,4 c 13.2785,0 24,10.7215 24,24 0,1.4452 -0.1342,2.8576 -0.3776,4.2317 l -0.927,-0.927 a 2.4002,2.4002 0 0 0 -1.7188,-0.7266 2.4002,2.4002 0 0 0 -1.6719,4.1172 l 2,2 a 2.4002,2.4002 0 0 0 0.8462,0.5712 c -0.5269,1.2617 -1.162,2.4655 -1.8872,3.6065 l -6.5683,-6.5683 a 2.4002,2.4002 0 0 0 -1.7188,-0.7266 2.4002,2.4002 0 0 0 -1.6719,4.1172 l 6.9722,6.9722 c -0.8561,0.8873 -1.7779,1.7102 -2.7616,2.4572 l -10.82,-10.82 a 2.4002,2.4002 0 0 0 -1.7188,-0.7266 2.4002,2.4002 0 0 0 -1.6719,4.1172 l 9.9945,9.9945 c -1.2138,0.576 -2.4856,1.0488 -3.8019,1.4168 l -2.802,-2.802 a 2.4002,2.4002 0 0 0 -1.7188,-0.7266 2.4002,2.4002 0 0 0 -1.6719,4.1172 l 0.2897,0.2897 c -0.1982,0.0048 -0.395,0.015 -0.5944,0.015 -13.2786,0 -24,-10.7214 -24,-24 0,-0.0539 0.0037,-0.1069 0.0041,-0.1607 4.447,3.7731 12.0212,8.1607 23.9959,8.1607 z" fill="#fff"/>
</svg>
