<svg xmlns="http://www.w3.org/2000/svg" width="64" height="64" viewBox="0 0 64 64">
  <path d="m 31.9375,4.9766 a 2.0002,2.0002 0 0 0 -1.5,0.7734 c -2.8259,3.5323 -4.6768,7.9866 -5.6406,14.25 h -15.7969 c -2.7046,-0.04 -2.7046,4.0382 0,4 h 15.3281 c -0.2088,2.4258 -0.328,5.0534 -0.328,8 0,2.9466 0.1196,5.5742 0.328,8 h -15.3281 c -2.7046,-0.04 -2.7046,4.0382 0,4 h 15.7969 c 0.964,6.2635 2.815,10.718 5.6406,14.25 a 2.001,2.001 0 0 0 3.125,-2.5 c -2.2622,-2.8278 -3.8556,-6.3863 -4.7422,-11.75 h 26.1797 c 2.7046,0.04 2.7046,-4.0382 0,-4 h -26.6719 c -0.2104,-2.3621 -0.328,-4.99 -0.328,-8 s 0.1176,-5.6379 0.328,-8 h 26.6719 c 2.7046,0.04 2.7046,-4.0382 0,-4 h -26.1797 c 0.8866,-5.3638 2.4802,-8.9225 4.7422,-11.75 a 2.0002,2.0002 0 0 0 -1.625,-3.2734 z" fill="#fff" opacity=".8"/>
  <circle cx="32" cy="32" r="26" fill="none" stroke="#fff" stroke-width="4"/>
</svg>
