<svg xmlns="http://www.w3.org/2000/svg" width="64" height="64" viewBox="0 0 64 64">
  <path d="m 28.5156,11.8672 a 4.0004,4.0004 0 0 0 -0.6719,0.0936 c -8.0132,1.6628 -14.2862,7.9625 -15.9062,15.9844 a 4.0012,4.0012 0 1 0 7.8437,1.5859 c 0.9903,-4.9036 4.7893,-8.718 9.6875,-9.7344 a 4.0004,4.0004 0 0 0 -0.9531,-7.9297 z" fill="#fff"/>
  <path d="m 32,4 c -15.4403,0 -28,12.5597 -28,28 s 12.5597,28 28,28 28,-12.5597 28,-28 -12.5597,-28 -28,-28 z m 0,4 c 12.4738,0 22.6894,9.4619 23.882,21.6163 l -4.7492,-4.7491 a 1.6002,1.6002 0 0 0 -1.1484,-0.4844 1.6002,1.6002 0 0 0 -1.1172,2.75 l 7.0314,7.0314 c -0.1895,2.1296 -0.6506,4.1796 -1.3577,6.1111 l -6.4081,-6.4081 a 1.6002,1.6002 0 0 0 -1.1484,-0.4844 1.6002,1.6002 0 0 0 -1.1172,2.75 l 7.2669,7.2669 c -0.8553,1.5857 -1.8877,3.0598 -3.0642,4.4045 l -6.937,-6.937 a 1.6002,1.6002 0 0 0 -1.1484,-0.4844 1.6002,1.6002 0 0 0 -1.1172,2.75 l 6.937,6.937 c -1.3448,1.1766 -2.8188,2.2089 -4.4045,3.0642 l -7.2669,-7.2669 a 1.6002,1.6002 0 0 0 -1.1484,-0.4844 1.6002,1.6002 0 0 0 -1.1172,2.75 l 6.4081,6.4081 c -1.6598,0.6076 -3.4082,1.0303 -5.218,1.2595 a 1.6002,1.6002 0 0 0 -0.0027,-0.0035 l -8,-7 a 1.6002,1.6002 0 0 0 -1.0156,-0.4141 1.6002,1.6002 0 0 0 -1.0938,2.8203 l 5.4113,4.7349 c -12.5078,-0.8423 -22.3566,-11.2126 -22.3566,-23.938 0,-13.2785 10.7215,-24 24,-24 z" fill="#fff"/>
</svg>
