{"asset":{"version":"2.0"},"extensionsUsed":["KHR_lights_punctual"],"accessors":[{"count":36,"type":"VEC3","componentType":5126,"bufferView":0,"max":[1.0,1.0,1.0],"min":[-1.0,-1.0,-1.0]},{"count":36,"type":"VEC3","componentType":5126,"bufferView":1},{"count":36,"type":"VEC4","componentType":5126,"bufferView":2},{"count":36,"type":"VEC4","componentType":5126,"bufferView":3},{"count":36,"type":"SCALAR","componentType":5125,"bufferView":4}],"buffers":[{"uri":"DefaultScene.bin","byteLength":2160,"name":"DefaultScene"}],"bufferViews":[{"buffer":0,"byteLength":432,"target":34962},{"buffer":0,"byteLength":432,"byteOffset":432,"target":34962},{"buffer":0,"byteLength":576,"byteOffset":864,"target":34962},{"buffer":0,"byteLength":576,"byteOffset":1440,"target":34962},{"buffer":0,"byteLength":144,"byteOffset":2016,"target":34963}],"cameras":[{"perspective":{"yfov":0.39959651231765747,"zfar":1000.0,"znear":0.10000000149011612},"type":"perspective"}],"meshes":[{"primitives":[{"attributes":{"POSITION":0,"NORMAL":1,"TANGENT":2,"COLOR_0":3},"indices":4}]}],"nodes":[{"camera":0,"rotation":[-0.20993340015411377,0.38616999983787537,0.09072007238864899,0.8936277627944946],"translation":[7.358891010284424,4.958309173583984,6.925790786743164],"name":"Camera"},{"translation":[4.076250076293945,5.903860092163086,-1.0054500102996826],"extensions":{"KHR_lights_punctual":{"light":0}},"name":"Light"},{"mesh":0,"name":"Cube"}],"scene":0,"scenes":[{"nodes":[0,1,2]}],"extensions":{"KHR_lights_punctual":{"lights":[{"intensity":100.0,"type":"point"}]}}}