{"asset":{"version":"2.0"},"extensionsUsed":["KHR_physics_rigid_bodies","KHR_implicit_shapes"],"accessors":[{"count":4,"type":"VEC3","componentType":5126,"bufferView":0,"max":[1.0,0.0,1.0],"min":[-1.0,0.0,-1.0]},{"count":4,"type":"VEC3","componentType":5126,"bufferView":1},{"count":4,"type":"VEC4","componentType":5126,"bufferView":2},{"count":4,"type":"VEC4","componentType":5126,"bufferView":3},{"count":6,"type":"SCALAR","componentType":5125,"bufferView":4},{"count":8,"type":"VEC3","componentType":5126,"bufferView":5,"max":[1.0,1.0,1.0],"min":[-1.0,-1.0,-1.0]},{"count":8,"type":"VEC3","componentType":5126,"bufferView":6},{"count":8,"type":"VEC4","componentType":5126,"bufferView":7},{"count":8,"type":"VEC4","componentType":5126,"bufferView":8},{"count":36,"type":"SCALAR","componentType":5125,"bufferView":9}],"buffers":[{"uri":"FallingCube.bin","byteLength":840,"name":"FallingCube"}],"bufferViews":[{"buffer":0,"byteLength":48,"target":34962},{"buffer":0,"byteLength":48,"byteOffset":48,"target":34962},{"buffer":0,"byteLength":64,"byteOffset":96,"target":34962},{"buffer":0,"byteLength":64,"byteOffset":160,"target":34962},{"buffer":0,"byteLength":24,"byteOffset":224,"target":34963},{"buffer":0,"byteLength":96,"byteOffset":248,"target":34962},{"buffer":0,"byteLength":96,"byteOffset":344,"target":34962},{"buffer":0,"byteLength":128,"byteOffset":440,"target":34962},{"buffer":0,"byteLength":128,"byteOffset":568,"target":34962},{"buffer":0,"byteLength":144,"byteOffset":696,"target":34963}],"meshes":[{"primitives":[{"attributes":{"POSITION":0,"NORMAL":1,"TANGENT":2,"COLOR_0":3},"indices":4}]},{"primitives":[{"attributes":{"POSITION":5,"NORMAL":6,"TANGENT":7,"COLOR_0":8},"indices":9}]}],"nodes":[{"mesh":0,"scale":[5.0,5.0,5.0],"extensions":{"KHR_physics_rigid_bodies":{"collider":{"geometry":{"shape":0}}}},"name":"Plane"},{"mesh":1,"translation":[0.0,5.0,0.0],"extensions":{"KHR_physics_rigid_bodies":{"motion":{},"collider":{"geometry":{"shape":1}}}},"name":"Cube"}],"scene":0,"scenes":[{"nodes":[0,1]}],"extensions":{"KHR_implicit_shapes":{"shapes":[{"type":"plane","plane":{"sizeX":2.0,"sizeZ":2.0,"doubleSided":false}},{"type":"box","box":{"size":[2.0,2.0,2.0]}}]}}}